<svg width="160" height="160" viewBox="0 0 160 160" fill="none" xmlns="http://www.w3.org/2000/svg">
  <defs>
    <linearGradient id="sky" x1="0" y1="0" x2="0" y2="1">
      <stop offset="0%" stop-color="#2F6DF6"/>
      <stop offset="100%" stop-color="#35C3FF"/>
    </linearGradient>
  </defs>
  <rect width="160" height="160" rx="24" fill="url(#sky)"/>
  <circle cx="62" cy="60" r="34" fill="#FACC15"/>
  <circle cx="78" cy="60" r="34" fill="#FEF3C7" fill-opacity="0.78"/>
  <path d="M38 104C38 94.0589 46.0589 86 56 86H108C120.15 86 130 95.8497 130 108C130 120.15 120.15 130 108 130H56C45.9543 130 38 122.046 38 112V104Z" fill="#E8F5FF"/>
  <path d="M28 106C28 96.0589 36.0589 88 46 88H94C106.15 88 116 97.8497 116 110C116 122.15 106.15 132 94 132H50C38.9543 132 30 123.046 30 112V106Z" fill="#F3FAFF"/>
</svg>
